<svg width="29" height="50" viewBox="0 0 29 50" fill="none" xmlns="http://www.w3.org/2000/svg">
<path d="M18.5 4V42.5H25.5C27.3594 42.5 29 44.1406 29 46C29 47.9688 27.3594 49.5 25.5 49.5H15H4.5C2.53125 49.5 1 47.9688 1 46C1 44.1406 2.53125 42.5 4.5 42.5H11.5V10.5625L6.35938 13.9531C4.82812 15.0469 2.64062 14.6094 1.54688 12.9688C0.453125 11.3281 0.890625 9.25 2.53125 8.15625L13.0312 1.15625C14.125 0.390625 15.4375 0.390625 16.6406 0.9375C17.7344 1.59375 18.5 2.79688 18.5 4Z" fill="black"/>
</svg>
