<svg width="36" height="50" viewBox="0 0 36 50" fill="none" xmlns="http://www.w3.org/2000/svg">
<path d="M16.0312 7.5C13.7344 7.5 11.4375 8.48438 9.79688 10.125L6.40625 13.5156C5.09375 14.9375 2.79688 14.9375 1.48438 13.5156C0.0625 12.2031 0.0625 9.90625 1.48438 8.59375L4.875 5.20312C7.82812 2.25 11.875 0.5 16.0312 0.5C24.8906 0.5 32 7.60938 32 16.4688C32 20.625 30.25 24.6719 27.2969 27.625L12.4219 42.5H32C33.8594 42.5 35.5 44.1406 35.5 46C35.5 47.9688 33.8594 49.5 32 49.5H4C2.57812 49.5 1.26562 48.7344 0.71875 47.4219C0.171875 46.1094 0.5 44.5781 1.48438 43.5938L22.375 22.7031C24.0156 21.0625 25 18.7656 25 16.4688C25 11.5469 20.9531 7.5 16.0312 7.5Z" fill="black"/>
</svg>
