<svg width="37" height="50" viewBox="0 0 37 50" fill="none" xmlns="http://www.w3.org/2000/svg">
<path d="M1.5 4C1.5 2.14062 3.03125 0.5 5 0.5H31.25C32.6719 0.5 33.9844 1.48438 34.4219 2.79688C34.9688 4.10938 34.6406 5.64062 33.5469 6.625L19.2188 19.75H21.625C29.8281 19.75 36.5 26.4219 36.5 34.625C36.5 42.9375 29.8281 49.5 21.625 49.5H12.9844C8.39062 49.5 4.125 46.875 2.04688 42.8281L1.82812 42.3906C0.953125 40.6406 1.60938 38.5625 3.35938 37.6875C5.10938 36.8125 7.1875 37.4688 8.0625 39.2188L8.28125 39.6562C9.15625 41.4062 11.0156 42.5 12.9844 42.5H21.625C25.8906 42.5 29.5 39 29.5 34.625C29.5 30.3594 25.8906 26.75 21.625 26.75H10.25C8.71875 26.75 7.51562 25.875 6.96875 24.5625C6.42188 23.25 6.75 21.7188 7.84375 20.7344L22.1719 7.5H5C3.03125 7.5 1.5 5.96875 1.5 4Z" fill="black"/>
</svg>
