<svg width="54" height="54" viewBox="0 0 54 54" fill="none" xmlns="http://www.w3.org/2000/svg">
<path d="M49.6406 23.5H36.625C35.5312 23.5 34.5469 22.9531 34.1094 21.9688C33.7812 20.9844 34 19.7812 34.7656 19.0156L39.25 14.5312C32.3594 7.85938 21.4219 7.85938 14.5312 14.6406C7.75 21.5312 7.75 32.5781 14.5312 39.4688C21.4219 46.25 32.4688 46.25 39.3594 39.4688C40.6719 38.0469 42.8594 38.0469 44.2812 39.4688C45.5938 40.7812 45.5938 42.9688 44.2812 44.3906C34.6562 53.9062 19.2344 53.9062 9.60938 44.3906C0.09375 34.7656 0.09375 19.3438 9.60938 9.71875C19.125 0.203125 34.5469 0.203125 44.1719 9.60938L48.7656 5.01562C49.4219 4.35938 50.625 4.14062 51.6094 4.46875C52.5938 4.90625 53.25 5.89062 53.25 6.875V20.875C53.25 22.4062 52.0469 23.5 50.625 23.5H49.6406Z" fill="black"/>
</svg>
