<svg width="50" height="58" viewBox="0 0 50 58" fill="none" xmlns="http://www.w3.org/2000/svg">
<path d="M48.4062 17.5156L37.9062 28.0156C36.5938 29.4375 34.2969 29.4375 32.9844 28.0156C31.5625 26.7031 31.5625 24.4062 32.9844 23.0938L37.4688 18.5H4C2.03125 18.5 0.5 16.9688 0.5 15C0.5 13.1406 2.03125 11.5 4 11.5H37.4688L32.9844 7.01562C31.5625 5.70312 31.5625 3.40625 32.9844 2.09375C34.2969 0.671875 36.5938 0.671875 37.9062 2.09375L48.4062 12.5938C49.8281 13.9062 49.8281 16.2031 48.4062 17.5156ZM11.9844 56.0156L1.48438 45.5156C0.0625 44.2031 0.0625 41.9062 1.48438 40.5938L11.9844 30.0938C13.2969 28.6719 15.5938 28.6719 16.9062 30.0938C18.3281 31.4062 18.3281 33.7031 16.9062 35.0156L12.4219 39.5H46C47.8594 39.5 49.5 41.1406 49.5 43C49.5 44.9688 47.8594 46.5 46 46.5H12.4219L16.9062 51.0938C18.3281 52.4062 18.3281 54.7031 16.9062 56.0156C15.5938 57.4375 13.2969 57.4375 11.9844 56.0156Z" fill="black"/>
</svg>
