<?xml version="1.0" encoding="UTF-8" standalone="no"?>
<!-- Created with Inkscape (http://www.inkscape.org/) -->

<svg
   width="75"
   height="75"
   viewBox="0 0 19.84375 19.84375"
   version="1.1"
   id="svg1"
   inkscape:version="1.3.2 (091e20ef0f, 2023-11-25)"
   sodipodi:docname="dice-3.svg"
   xmlns:inkscape="http://www.inkscape.org/namespaces/inkscape"
   xmlns:sodipodi="http://sodipodi.sourceforge.net/DTD/sodipodi-0.dtd"
   xmlns="http://www.w3.org/2000/svg"
   xmlns:svg="http://www.w3.org/2000/svg">
  <sodipodi:namedview
     id="namedview1"
     pagecolor="#ffffff"
     bordercolor="#000000"
     borderopacity="0.25"
     inkscape:showpageshadow="2"
     inkscape:pageopacity="0.0"
     inkscape:pagecheckerboard="0"
     inkscape:deskcolor="#d1d1d1"
     inkscape:document-units="mm"
     inkscape:zoom="6.0578002"
     inkscape:cx="38.462807"
     inkscape:cy="44.240482"
     inkscape:window-width="1920"
     inkscape:window-height="1007"
     inkscape:window-x="0"
     inkscape:window-y="0"
     inkscape:window-maximized="1"
     inkscape:current-layer="layer1" />
  <defs
     id="defs1" />
  <g
     inkscape:label="Calque 1"
     inkscape:groupmode="layer"
     id="layer1">
    <g
       transform="matrix(0.13071895,0,0,0.13071895,-53.868973,-0.25618741)"
       fill-rule="evenodd"
       stroke="#000000"
       stroke-width="3"
       id="g22">
      <path
         d="m 463,2.86218 h 50 a 50,50 0 0 1 50,50 v 50 a 50,50 0 0 1 -50,50 h -50 a 50,50 0 0 1 -50,-50 v -50 a 50,50 0 0 1 50,-50"
         fill="#ffffff"
         id="path19" />
      <path
         transform="translate(126.5,-186)"
         d="m 337.5,227.36 a 12.5,12.5 0 1 1 -25,0 12.5,12.5 0 1 1 25,0 z"
         id="path20" />
      <path
         transform="translate(198.5,-114)"
         d="m 337.5,227.36 a 12.5,12.5 0 1 1 -25,0 12.5,12.5 0 1 1 25,0 z"
         id="path21" />
      <path
         transform="translate(162.5,-150)"
         d="m 337.5,227.36 a 12.5,12.5 0 1 1 -25,0 12.5,12.5 0 1 1 25,0 z"
         id="path22" />
    </g>
  </g>
</svg>
